<?xml version="1.0" encoding="UTF-8" standalone="no"?>
<!-- Generator: Gravit.io --><svg xmlns="http://www.w3.org/2000/svg" xmlns:xlink="http://www.w3.org/1999/xlink"
    style="isolation:isolate" viewBox="0 0 79.37 164.409" width="79.37pt" height="164.409pt">
    <defs>
        <clipPath id="_clipPath_dr1X3plKKqc7cEUJ4Po1RmnzUrBjZ7Sp">
            <rect width="79.37" height="164.409" />
        </clipPath>
    </defs>
    <g clip-path="url(#_clipPath_dr1X3plKKqc7cEUJ4Po1RmnzUrBjZ7Sp)">
        <g>
            <ellipse class="head" vector-effect="non-scaling-stroke" cx="39.68503937007871" cy="23.376261108661577"
                rx="19.134068891892525" ry="19.124292604724662" fill="white" stroke-width="6" stroke="rgb(113,119,223)"
                stroke-linejoin="miter" stroke-linecap="square" stroke-miterlimit="3" />
            <path
                class="body" d=" M 39.464 51.366 Q 22.332 51.366 6.401 58.832 L 6.401 112.219 Q 8.392 116.84 13.545 116.692 Q 18.697 116.544 19.487 112.219 L 19.487 80.578 L 21.478 80.578 L 21.478 156.421 Q 25.145 160.154 29.444 160.154 Q 33.743 160.154 38.073 156.421 L 38.073 122.073 L 39.464 122.073 L 39.464 156.421 Q 45.059 160.272 49.073 160.154 Q 53.087 160.035 57.291 156.421 L 57.291 80.578 L 59.314 80.578 L 59.314 112.219 Q 60.673 116.603 66.426 116.692 Q 72.179 116.781 72.969 112.219 L 72.969 58.832 Q 56.596 51.366 39.464 51.366 Z "
                fill="white" vector-effect="non-scaling-stroke" stroke-width="6" stroke="rgb(113,119,223)"
                stroke-linejoin="round" stroke-linecap="round" stroke-miterlimit="3" />
        </g>
    </g>
</svg>