<?xml version="1.0" encoding="UTF-8" standalone="no"?><!-- Generator: Gravit.io --><svg xmlns="http://www.w3.org/2000/svg" xmlns:xlink="http://www.w3.org/1999/xlink" style="isolation:isolate" viewBox="0 0 160 175" width="160pt" height="175pt"><defs><clipPath id="_clipPath_BpPQCBcFwKjHYMugoMl04FDzPT4gQtEU"><rect width="160" height="175"/></clipPath></defs><g clip-path="url(#_clipPath_BpPQCBcFwKjHYMugoMl04FDzPT4gQtEU)"><g><path d=" M 53.738 93.561 L 56.073 112.705 L 47.197 115.239 L 41.592 139.451 L 33.183 145.081 L 53.738 167.041 L 85.971 128.189 L 84.103 119.744 L 93.913 116.365 L 109.796 103.133 L 97.183 84.72 L 53.738 93.561 Z " fill="rgb(221,200,197)"/><path d=" M 39.844 135.339 L 47.241 134.546 L 46.449 142.207 L 46.449 144.849 L 44.335 146.963 L 40.085 137.716 L 39.844 135.339 Z " fill="rgb(237,106,90)"/><path d=" M 20.03 129.262 Q 8.935 136.263 7.878 140.358 Q 6.821 144.453 4.708 167.041 L 155.292 167.041 Q 146.64 121.073 132.308 115.525 Q 117.976 109.977 75.751 124.243 L 59.13 167.041 L 31.919 167.041 Q 37.818 146.051 39.816 139.229 C 41.813 132.408 40.322 135.525 40.373 134.018 Q 40.703 124.111 35.617 127.677 L 20.03 129.262 Z " fill="rgb(237,106,90)"/><path d=" M 40.085 137.464 L 55.431 167.041 L 30.598 167.041 L 40.085 137.464 Z " fill="rgb(253,253,253)"/><path d=" M 72.867 129.923 L 71.996 123.169 L 71.81 121.733 L 77.358 118.563 L 81.321 125.696 L 75.245 133.621 L 57.544 172.72 L 54.638 166.116 L 72.867 129.923 Z " fill="rgb(244,162,89)"/><path d=" M 74.602 126.356 L 73.017 130.319 L 72.145 121.733 L 77.508 118.563 L 79.886 123.169 L 75.637 124.243 L 74.602 126.356 Z " fill="rgb(237,106,90)" vector-effect="non-scaling-stroke" stroke-width="1" stroke="rgb(237,106,90)" stroke-linejoin="miter" stroke-linecap="square" stroke-miterlimit="3"/><path d=" M 40.108 132.433 Q 40.24 131.64 40.108 137.716 Q 46.317 134.678 46.449 136.395 Q 46.581 138.113 46.449 142.207 L 48.298 140.358 Q 50.131 123.987 50.676 121.337 C 51.221 118.687 39.976 133.225 40.108 132.433 Z " fill="rgb(244,162,89)"/><path d=" M 67.055 5.625 Q 64.743 2.091 61.771 2.719 C 58.799 3.346 49.421 9.753 46.185 14.871 Q 42.948 19.99 38.259 29.665 Q 30.664 36.171 30.069 40.761 Q 29.475 45.351 35.353 49.479 Q 33.9 52.847 35.353 56.084 Q 36.806 59.32 35.881 61.632 Q 22.144 100.466 23.993 104.958 Q 25.843 109.449 23.993 113.147 Q 14.813 115.921 15.804 119.223 Q 16.794 122.526 20.03 124.771 Q 17.719 128.008 20.03 128.734 C 22.342 129.461 30.268 132.102 30.862 130.583 Q 31.456 129.064 31.919 130.055 Q 30.994 132.168 35.881 133.489 Q 40.769 134.81 47.241 124.771 Q 56.851 115.888 56.488 114.204 C 56.124 112.52 55.167 97.858 54.11 96.768 Q 53.053 95.678 44.071 76.426 L 43.543 45.516 L 59.13 24.646 L 61.771 22.532 L 69.169 22.532 L 90.831 45.516 L 89.246 76.426 L 83.17 88.842 Q 83.346 96.504 82.378 99.938 C 81.409 103.372 75.069 112.002 72.339 113.147 C 69.609 114.292 67.407 119.135 59.658 119.223 Q 51.909 119.311 65.998 120.544 Q 77.975 119.664 77.094 117.903 C 76.213 116.141 78.762 125.712 83.963 126.621 Q 89.164 127.529 88.19 126.885 Q 101.487 134.458 104.569 130.055 Q 107.651 125.652 106.418 130.055 Q 111.086 127.061 111.174 124.771 Q 111.262 122.482 121.213 121.337 Q 126.144 117.814 126.76 113.147 Q 127.377 108.48 125.175 108.392 Q 128.081 103.461 128.081 100.995 Q 128.081 98.529 124.383 93.598 Q 120.508 87.962 117.514 87.521 Q 114.52 87.081 115.401 79.86 Q 115.577 75.281 113.023 74.048 C 110.469 72.815 109.412 65.418 109.588 62.952 C 109.765 60.487 113.948 61.037 113.815 59.254 C 113.683 57.471 111.108 57.537 112.23 57.405 C 113.353 57.273 113.903 54.499 113.023 53.706 Q 112.142 52.914 109.588 51.857 Q 109.192 46.177 111.174 44.988 C 113.155 43.799 113.485 40.035 113.023 38.383 C 112.561 36.732 106.286 24.91 105.89 24.118 Q 105.494 23.325 99.285 14.871 Q 93.826 9.764 90.831 8.002 C 87.837 6.241 81.717 2.917 81.057 2.719 C 80.396 2.521 78.943 1.838 72.339 2.719 Q 65.734 3.599 67.055 5.625 Z " fill="rgb(142,105,99)"/><path d=" M 33.768 83.559 C 35.683 83.295 37.29 86.993 37.467 88.842 Q 37.643 90.692 28.484 99.146 Q 31.853 83.823 33.768 83.559 Z " fill="rgb(181,232,115)"/><path d=" M 47.506 30.986 Q 42.486 40.101 41.693 46.837 Q 40.637 55.886 40.901 59.518 C 41.165 63.151 41.892 75.831 43.014 79.068 C 44.137 82.304 45.92 87.72 49.091 91.484 C 52.261 95.249 54.903 99.079 62.564 100.202 Q 70.225 101.325 78.943 91.484 L 96.115 81.709 L 95.587 55.027 L 95.587 42.346 L 88.718 31.515 Q 75.905 21.278 64.942 22.797 Q 52.525 21.872 47.506 30.986 Z " fill="rgb(236,218,218)"/><path d=" M 88.61 31.408 Q 92.308 41.05 92.572 45.145 C 92.837 49.24 91.648 62.449 90.195 67.072 C 88.742 71.695 83.722 83.716 78.307 88.471 C 72.891 93.226 64.329 99.063 63.512 99.831 C 62.696 100.599 55.719 111.983 56.908 113.04 C 58.097 114.097 56.667 106.13 69.324 97.189 C 81.981 88.248 78.286 90.654 81.477 88.471 C 84.667 86.289 99.069 84.665 98.384 79.225 Q 97.7 73.784 98.384 49.636 L 94.686 36.163 Q 90.103 28.708 88.61 28.766 Q 87.116 28.823 88.61 31.408 Z " fill="rgb(142,105,99)"/><path d=" M 87.577 96.478 Q 88.728 100.415 86.94 101.762 C 85.152 103.108 71.112 107.614 69.876 106.781 Q 68.846 106.087 68.676 104.876 Q 68.754 104.867 68.82 104.932 C 69.03 105.141 68.412 104.882 68.834 104.788 C 69.255 104.693 70.008 104.422 72.518 104.403 C 77.953 104.363 82.491 98.195 78.859 97.006 Q 75.226 95.817 77.538 92.779 L 83.35 85.118 L 95.238 86.439 L 98.144 88.552 L 98.408 95.421 L 87.577 96.478 Z " fill="rgb(142,105,99)"/><path d=" M 75.223 108.131 Q 68.024 106.811 70.203 106.282 C 72.383 105.754 73.504 106.363 73.374 105.754 C 73.244 105.145 70.798 107.009 75.223 108.131 Z " fill="rgb(142,105,99)"/></g></g></svg>